:SAMPLES-PER-SECOND 30
:FULLY-SPECIFIED
:DEGREES
454
root  65.1822 37.8808 -3.72193 -9.60895 -84.5453 4.58936
RightUpLeg  -8.44163 -6.18952 -0.258365
RightLeg  28.9739 -1.50458 -1.15628
RightFoot  -14.6918 -0.172272 -2.49137
RightToes  -3.0268e-009 0 -3.6325e-017
Spine  10.8315 0.509033 12.3863
Spine1  4.2728 3.0161 -3.73504
HEad  -9.9477 -45.4735 11.4423
LeftShoulder1  -0.500974 4.76734 -33.5169
LeftArm  8.14196 9.30191 -42.0427
LeftForeArm  26.8278 -39.702 -7.591
LeftHand  -0.0325835 7.53149 0.331796
RightShoulder  -1.30111 -6.90554 31.7348
RightArm  10.4309 9.4072 40.5882
RightForeArm  8.69053 29.9099 6.03715
RightHand  -0.620914 7.09412 -6.11302
LeftUpLeg  -19.8929 1.86523 1.75218
LeftLeg  55.6115 -2.46198 -3.41425
LeftFoot  -5.40892 0.206146 -3.34237
LeftToes  2.52475e-009 -1.26109e-010 3.16044e-011
455
root  64.2354 38.0496 -3.83962 -16.819 -85.0517 12.1758
RightUpLeg  -6.48684 -6.35718 -0.77714
RightLeg  27.4204 -0.783275 -0.692519
RightFoot  -15.2514 -0.194477 -2.67497
RightToes  -3.0268e-009 0 -3.6325e-017
Spine  9.61421 1.1424 12.6196
Spine1  5.44437 3.76835 -5.27826
HEad  -10.3157 -45.5952 11.9903
LeftShoulder1  -0.526094 4.81565 -33.9705
LeftArm  7.66057 9.57328 -40.8977
LeftForeArm  26.3361 -37.3624 -6.94264
LeftHand  -0.0462987 6.80525 -0.670502
RightShoulder  -1.20704 -6.67883 31.5014
RightArm  8.33163 10.5475 40.7505
RightForeArm  10.4093 34.4973 7.12758
RightHand  -0.645286 7.06358 -6.35323
LeftUpLeg  -21.6327 2.71237 1.06469
LeftLeg  48.8017 -2.44059 -2.5556
LeftFoot  -5.71214 0.203455 -3.44389
LeftToes  2.52475e-009 -1.26109e-010 3.16044e-011
456
root  63.2794 38.2154 -3.94053 -25.0239 -85.4469 20.3812
RightUpLeg  -3.96918 -6.61707 -1.33151
RightLeg  25.5497 -0.113472 -0.3215
RightFoot  -15.7002 -0.221658 -3.03495
RightToes  -3.0268e-009 0 -3.6325e-017
Spine  9.78089 1.52114 12.493
Spine1  5.12003 4.23453 -6.45227
HEad  -10.938 -45.5838 11.6948
LeftShoulder1  -0.618882 5.01999 -34.5066
LeftArm  7.9158 10.7664 -39.516
LeftForeArm  25.7679 -34.9827 -6.33244
LeftHand  -0.0445639 7.55318 -0.149194
RightShoulder  -1.11366 -6.46401 31.0312
RightArm  6.80649 10.8675 40.9981
RightForeArm  11.6778 39.1474 8.38157
RightHand  -0.619784 6.97207 -6.15847
LeftUpLeg  -22.192 3.58468 0.500633
LeftLeg  40.4338 -2.65933 -2.05908
LeftFoot  -5.17058 0.222392 -3.54397
LeftToes  2.52475e-009 -1.26109e-010 3.16044e-011
457
root  62.3359 38.3198 -4.05345 -31.4822 -86.1258 27.0759
RightUpLeg  -1.88831 -6.12454 -1.27039
RightLeg  23.8571 0.109968 -0.270828
RightFoot  -15.9736 -0.248792 -3.48081
RightToes  -3.0268e-009 0 -3.6325e-017
Spine  9.40419 1.73221 11.9336
Spine1  5.64498 4.26522 -6.50674
HEad  -11.4173 -44.8787 11.4965
LeftShoulder1  -0.917155 5.69448 -35.6947
LeftArm  8.25525 11.6214 -37.9374
LeftForeArm  24.5223 -32.0948 -5.67469
LeftHand  -0.0387806 8.1418 0.229076
RightShoulder  -0.960878 -6.18251 29.3335
RightArm  6.30024 11.8243 42.7862
RightForeArm  13.7716 43.1058 9.58349
RightHand  -0.581417 6.86185 -5.86397
LeftUpLeg  -22.5268 4.45264 0.353852
LeftLeg  31.4742 -2.53444 -1.33738
LeftFoot  -5.02259 0.273251 -4.40647
LeftToes  2.52475e-009 -1.26109e-010 3.16044e-011
458
root  61.3945 38.3936 -4.14415 -38.7012 -86.7982 34.2746
RightUpLeg  0.47545 -5.76632 -1.22853
RightLeg  22.2111 0.468226 -0.173689
RightFoot  -16.2808 -0.267278 -3.64943
RightToes  -3.0268e-009 0 -3.6325e-017
Spine  9.77892 2.13428 11.9535
Spine1  5.32276 4.89148 -7.85057
HEad  -11.5509 -45.1763 11.6007
LeftShoulder1  -0.753697 5.33525 -34.901
LeftArm  9.23101 13.2324 -37.8215
LeftForeArm  22.8901 -28.2276 -4.81928
LeftHand  -0.00629284 8.80935 1.39654
RightShoulder  -1.13947 -6.60346 30.2012
RightArm  6.19695 12.0779 42.1715
RightForeArm  15.5687 47.8621 11.2504
RightHand  -0.563185 5.67914 -6.22186
LeftUpLeg  -22.2852 5.09157 0.247709
LeftLeg  22.5133 -1.95048 -0.538921
LeftFoot  -5.01026 0.270745 -4.35514
LeftToes  2.52475e-009 -1.26109e-010 3.16044e-011
459
root  60.3762 38.3981 -4.19042 -38.0854 -86.8958 33.6209
RightUpLeg  3.0037 -6.00707 -1.23978
RightLeg  20.6987 0.795548 -0.0724088
RightFoot  -17.0168 -0.275166 -3.23196
RightToes  -3.0268e-009 0 -3.6325e-017
Spine  9.48718 2.361 11.8502
Spine1  5.61903 5.26697 -8.78174
HEad  -11.3888 -45.5343 11.7397
LeftShoulder1  -0.525464 4.82044 -33.8135
LeftArm  10.1699 14.6776 -38.1706
LeftForeArm  21.4851 -23.8133 -4.18103
LeftHand  -0.0315517 10.2097 0.55008
RightShoulder  -1.36429 -7.08816 31.5905
RightArm  6.53233 12.9591 41.4718
RightForeArm  16.5126 50.4765 12.3636
RightHand  -0.558887 6.64043 -5.72326
LeftUpLeg  -21.7189 4.69147 0.214946
LeftLeg  13.7834 -0.305427 0.0404065
LeftFoot  -4.42393 0.308787 -4.65093
LeftToes  2.52475e-009 -1.26109e-010 3.16044e-011
460
root  59.3458 38.3568 -4.20452 -41.4668 -87.2346 37.1917
RightUpLeg  5.12086 -5.6832 -1.21102
RightLeg  19.4661 0.812929 -0.116126
RightFoot  -17.8372 -0.275653 -2.73123
RightToes  -3.0268e-009 0 -3.6325e-017
Spine  9.01509 2.49826 11.0139
Spine1  6.04486 5.27516 -8.60073
HEad  -11.2848 -44.6898 11.4828
LeftShoulder1  -0.586419 4.94901 -34.3301
LeftArm  8.604 15.6415 -37.2881
LeftForeArm  23.6338 -19.1916 -5.10386
LeftHand  -0.0502431 10.1058 0.0726896
RightShoulder  -1.30192 -6.94552 31.2608
RightArm  6.98235 13.0719 42.2439
RightForeArm  17.7875 52.3673 13.1894
RightHand  -0.550365 6.11053 -5.87423
LeftUpLeg  -21.2573 3.64662 0.668308
LeftLeg  6.11647 3.29879 -0.200586
LeftFoot  -3.3259 0.412779 -5.61453
LeftToes  2.52475e-009 -1.26109e-010 3.16044e-011
